<svg width="28" height="31" viewBox="0 0 28 31" fill="none" xmlns="http://www.w3.org/2000/svg">
<g filter="url(#filter0_d_214_2547)">
<path d="M13.99 2.63617C8.47 2.63617 4 7.11617 4 12.6362C4 18.1562 8.47 22.6362 13.99 22.6362C19.52 22.6362 24 18.1562 24 12.6362C24 7.11617 19.52 2.63617 13.99 2.63617ZM14 20.6362C9.58 20.6362 6 17.0562 6 12.6362C6 8.21617 9.58 4.63617 14 4.63617C18.42 4.63617 22 8.21617 22 12.6362C22 17.0562 18.42 20.6362 14 20.6362ZM14.5 7.63617H13L13 13.6362L18.25 16.7862L19 15.5562L14.5 12.8862L14.5 7.63617Z" fill="#020953"/>
</g>
<defs>
<filter id="filter0_d_214_2547" x="-2" y="0.636169" width="32" height="32" filterUnits="userSpaceOnUse" color-interpolation-filters="sRGB">
<feFlood flood-opacity="0" result="BackgroundImageFix"/>
<feColorMatrix in="SourceAlpha" type="matrix" values="0 0 0 0 0 0 0 0 0 0 0 0 0 0 0 0 0 0 127 0" result="hardAlpha"/>
<feOffset dy="4"/>
<feGaussianBlur stdDeviation="2"/>
<feComposite in2="hardAlpha" operator="out"/>
<feColorMatrix type="matrix" values="0 0 0 0 0 0 0 0 0 0 0 0 0 0 0 0 0 0 0.25 0"/>
<feBlend mode="normal" in2="BackgroundImageFix" result="effect1_dropShadow_214_2547"/>
<feBlend mode="normal" in="SourceGraphic" in2="effect1_dropShadow_214_2547" result="shape"/>
</filter>
</defs>
</svg>
