<svg width="36" height="19" viewBox="0 0 36 19" fill="none" xmlns="http://www.w3.org/2000/svg">
<rect width="35.9998" height="18.9474" rx="9.47367" fill="#951E1E"/>
<ellipse cx="9.37883" cy="9.47365" rx="8.62101" ry="9.09475" fill="white"/>
<path d="M24.629 9.28985C24.629 9.75492 24.545 10.1568 24.3771 10.4956C24.2092 10.8343 23.9788 11.0956 23.6859 11.2793C23.3931 11.4631 23.0587 11.5549 22.6826 11.5549C22.3065 11.5549 21.9721 11.4631 21.6793 11.2793C21.3864 11.0956 21.156 10.8343 20.9881 10.4956C20.8202 10.1568 20.7362 9.75492 20.7362 9.28985C20.7362 8.82478 20.8202 8.42286 20.9881 8.08411C21.156 7.74535 21.3864 7.48411 21.6793 7.30038C21.9721 7.11665 22.3065 7.02478 22.6826 7.02478C23.0587 7.02478 23.3931 7.11665 23.6859 7.30038C23.9788 7.48411 24.2092 7.74535 24.3771 8.08411C24.545 8.42286 24.629 8.82478 24.629 9.28985ZM24.1123 9.28985C24.1123 8.90803 24.0484 8.58578 23.9206 8.3231C23.7943 8.06042 23.6228 7.86162 23.406 7.72669C23.1907 7.59176 22.9496 7.5243 22.6826 7.5243C22.4156 7.5243 22.1738 7.59176 21.957 7.72669C21.7417 7.86162 21.5702 8.06042 21.4424 8.3231C21.3161 8.58578 21.2529 8.90803 21.2529 9.28985C21.2529 9.67167 21.3161 9.99391 21.4424 10.2566C21.5702 10.5193 21.7417 10.7181 21.957 10.853C22.1738 10.9879 22.4156 11.0554 22.6826 11.0554C22.9496 11.0554 23.1907 10.9879 23.406 10.853C23.6228 10.7181 23.7943 10.5193 23.9206 10.2566C24.0484 9.99391 24.1123 9.67167 24.1123 9.28985ZM25.5269 11.4946V7.08507H28.1709V7.55875H26.0608V9.0487H27.9728V9.52238H26.0608V11.4946H25.5269ZM29.0854 11.4946V7.08507H31.7294V7.55875H29.6194V9.0487H31.5313V9.52238H29.6194V11.4946H29.0854Z" fill="white"/>
</svg>
