<svg width="101" height="99" viewBox="0 0 101 99" fill="none" xmlns="http://www.w3.org/2000/svg">
<g clip-path="url(#clip0_439_644)">
<path d="M50.5 99C78.3904 99 101 76.8381 101 49.5C101 22.1619 78.3904 0 50.5 0C22.6096 0 0 22.1619 0 49.5C0 76.8381 22.6096 99 50.5 99Z" fill="#D9D9D9"/>
<path d="M50 57C61.598 57 71 48.0457 71 37C71 25.9543 61.598 17 50 17C38.402 17 29 25.9543 29 37C29 48.0457 38.402 57 50 57Z" fill="white"/>
<path d="M49.8507 96.1451C70.755 96.2952 87.7685 87.0431 87.8515 75.48C87.9345 63.917 71.0555 54.4216 50.1511 54.2716C29.2468 54.1216 12.2333 63.3737 12.1503 74.9368C12.0673 86.4998 28.9463 95.9951 49.8507 96.1451Z" fill="white"/>
<path d="M39 54.5C44.5 58 58 57.5 61.5 54" stroke="#D9D9D9" stroke-width="0.8"/>
<circle cx="78" cy="89" r="10" fill="white"/>
<path d="M79 84.5C79 83.9477 78.5523 83.5 78 83.5C77.4477 83.5 77 83.9477 77 84.5L79 84.5ZM77 93.5C77 94.0523 77.4477 94.5 78 94.5C78.5523 94.5 79 94.0523 79 93.5H77ZM82.5 90C83.0523 90 83.5 89.5523 83.5 89C83.5 88.4477 83.0523 88 82.5 88V90ZM73.5 88C72.9477 88 72.5 88.4477 72.5 89C72.5 89.5523 72.9477 90 73.5 90V88ZM86 89C86 93.4183 82.4183 97 78 97V99C83.5228 99 88 94.5228 88 89H86ZM78 97C73.5817 97 70 93.4183 70 89H68C68 94.5228 72.4772 99 78 99V97ZM70 89C70 84.5817 73.5817 81 78 81V79C72.4772 79 68 83.4772 68 89H70ZM78 81C82.4183 81 86 84.5817 86 89H88C88 83.4772 83.5228 79 78 79V81ZM77 84.5L77 89L79 89L79 84.5L77 84.5ZM77 89V93.5H79V89H77ZM82.5 88H78V90H82.5V88ZM78 88H73.5V90H78V88Z" fill="#020953"/>
</g>
<defs>
<clipPath id="clip0_439_644">
<rect width="101" height="99" fill="white"/>
</clipPath>
</defs>
</svg>
