<svg width="24" height="26" viewBox="0 0 24 26" fill="none" xmlns="http://www.w3.org/2000/svg">
<circle cx="12" cy="12.6362" r="12" fill="white"/>
<path d="M3.76681 20.7344C3.77282 20.7436 3.77805 20.7507 3.78109 20.7546L3.78858 20.7646C5.65885 23.2643 8.64337 24.8862 12.0001 24.8862C15.3567 24.8862 18.3412 23.2643 20.2115 20.7646L20.2117 20.7648L20.216 20.7584L20.2176 20.7564L20.2177 20.7562C20.2204 20.7527 20.2263 20.745 20.2332 20.7345C21.4994 19.0293 22.25 16.9187 22.25 14.6362C22.25 8.98405 17.6521 4.38617 12.0001 4.38617C6.34788 4.38617 1.75 8.98405 1.75 14.6362C1.75 16.9187 2.50058 19.0293 3.76681 20.7344ZM12.0001 23.8092C9.14978 23.8092 6.60043 22.5009 4.91609 20.4534C6.66748 18.3193 9.22379 17.1023 12.0001 17.1023C14.7762 17.1023 17.3325 18.3193 19.0839 20.4534C17.3996 22.5009 14.8503 23.8092 12.0001 23.8092ZM9.30066 13.3252C9.30066 11.837 10.5119 10.626 12.0001 10.626C13.4883 10.626 14.6993 11.837 14.6993 13.3252C14.6993 14.8134 13.4883 16.0246 12.0001 16.0246C10.5119 16.0246 9.30066 14.8134 9.30066 13.3252ZM21.173 14.6362C21.173 16.446 20.6452 18.1337 19.7366 19.5567C18.305 17.9032 16.4251 16.7736 14.3344 16.291C15.2114 15.5994 15.7763 14.5276 15.7763 13.3252C15.7763 11.2428 14.0825 9.54897 12.0001 9.54897C9.91752 9.54897 8.22368 11.2428 8.22368 13.3252C8.22368 14.5276 8.78862 15.5995 9.66566 16.291C7.57495 16.7736 5.69504 17.9033 4.26341 19.5567C3.35484 18.1338 2.82698 16.446 2.82698 14.6362C2.82698 9.5784 6.94223 5.46315 12.0001 5.46315C17.0578 5.46315 21.173 9.5784 21.173 14.6362Z" fill="#020953" stroke="#020953" stroke-width="0.5"/>
<circle cx="12" cy="14.6362" r="10" stroke="#020953" stroke-width="1.5"/>
</svg>
