<svg width="21" height="21" viewBox="0 0 21 21" fill="none" xmlns="http://www.w3.org/2000/svg">
<g clip-path="url(#clip0_214_2559)">
<path d="M10.5 0.875L18.8125 5.6875V15.3125L10.5 20.125L2.1875 15.3125V5.6875L10.5 0.875ZM10.5 2.89713L3.9375 6.69637V14.3036L10.5 18.1029L17.0625 14.3036V6.69637L10.5 2.89713ZM10.5 14C9.57174 14 8.6815 13.6313 8.02513 12.9749C7.36875 12.3185 7 11.4283 7 10.5C7 9.57174 7.36875 8.6815 8.02513 8.02513C8.6815 7.36875 9.57174 7 10.5 7C11.4283 7 12.3185 7.36875 12.9749 8.02513C13.6313 8.6815 14 9.57174 14 10.5C14 11.4283 13.6313 12.3185 12.9749 12.9749C12.3185 13.6313 11.4283 14 10.5 14ZM10.5 12.25C10.9641 12.25 11.4092 12.0656 11.7374 11.7374C12.0656 11.4092 12.25 10.9641 12.25 10.5C12.25 10.0359 12.0656 9.59075 11.7374 9.26256C11.4092 8.93437 10.9641 8.75 10.5 8.75C10.0359 8.75 9.59075 8.93437 9.26256 9.26256C8.93437 9.59075 8.75 10.0359 8.75 10.5C8.75 10.9641 8.93437 11.4092 9.26256 11.7374C9.59075 12.0656 10.0359 12.25 10.5 12.25Z" fill="#020953"/>
</g>
<defs>
<clipPath id="clip0_214_2559">
<rect width="21" height="21" fill="white"/>
</clipPath>
</defs>
</svg>
